<svg version="1.2" xmlns="http://www.w3.org/2000/svg" viewBox="0 0 810 484" width="810" height="484">
	<title>AD (1) White-svg</title>
	<style>
		.s0 { fill: #ffffff } 
	</style>
	<g id="Layer">
		<g id="Layer">
			<g id="Layer">
				<path id="Layer" fill-rule="evenodd" class="s0" d="m371.8 469.7l-77.7-182.1h-176.4l-80.6 182.1h-16.5l205.1-461.3h4.3l197.2 461.3zm-248.3-193.6h165.6l-81.4-190z"/>
			</g>
		</g>
	</g>
	<g id="Layer">
		<g id="Layer">
			<g id="Layer">
				<path id="Layer" fill-rule="evenodd" class="s0" d="m564 18.5q24.6 0 55.4 4.4 30.7 4.3 61.5 16.6 30.8 12.3 56.1 36.2 25.4 23.9 40.9 63.7 15.6 39.9 15.6 99.2 0 61.6-17.4 103.2-17.4 41.6-45.6 67.3-28.2 25.7-60.4 39.5-32.3 13.7-62.3 18.8-30 5.1-51.4 5.8-21.4 0.7-27.2 0.7h-153.4v-455.4zm-35.5 443.1q36.9 0 74.6-10.1 37.6-10.2 68.7-34.8 31.2-24.6 50-68 18.8-43.5 18.8-110.1 0-52.8-13-89.7-13.1-37-35.1-60.1-22.1-23.2-48.9-35.5-26.8-12.3-54.7-17-27.8-4.7-52.5-4.7h-108.6v430z"/>
			</g>
		</g>
	</g>
</svg>