<svg version="1.2" xmlns="http://www.w3.org/2000/svg" viewBox="0 0 810 207" width="810" height="207">
	<title>Encrypter-svg</title>
	<style>
		.s0 { fill: #0057ff } 
		.s1 { fill: #28ff0d } 
	</style>
	<g id="Layer" style="opacity: .3">
		<g id="Layer">
			<g id="Layer">
				<path id="Layer" class="s0" d="m49.2 197.8l46.4-172.3h22.5l-46.3 172.3z"/>
			</g>
		</g>
	</g>
	<g id="Layer" style="opacity: .3">
		<g id="Layer">
			<g id="Layer">
				<path id="Layer" class="s0" d="m180.3 48.1h-31.8v38.3l31.8-16.4v25.2l-31.8 16.4v35.9h31.8v21.6h-54.4v-123.1q0-8.2 5.5-13.8 5.4-5.7 13-5.7h35.9z"/>
			</g>
		</g>
	</g>
	<g id="Layer" style="opacity: .3">
		<g id="Layer">
			<g id="Layer">
				<path id="Layer" class="s0" d="m217.2 169.1h-22.6v-113.9h22.6v10.5q1.2-2.7 3.3-4.9 5.5-5.6 13.1-5.6h4.1q7.6 0 13 5.7 5.5 5.6 5.5 13.8v94.4h-22.6v-92.3h-16.4z"/>
			</g>
		</g>
	</g>
	<g id="Layer" style="opacity: .3">
		<g id="Layer">
			<g id="Layer">
				<path id="Layer" class="s0" d="m311.5 131.1l22.6-11.3v29.8q0 8.2-5.4 13.8-5.5 5.7-13 5.7h-24.7q-7.5 0-13-5.8-5.4-5.7-5.4-13.7v-74.9q0-8.2 5.4-13.8 5.5-5.7 13-5.7h24.7q7.5 0 13 5.7 5.4 5.6 5.4 13.8v12.3l-22.6 11.3v-21.5h-16.4v70.7h16.4z"/>
			</g>
		</g>
	</g>
	<g id="Layer" style="opacity: .3">
		<g id="Layer">
			<g id="Layer">
				<path id="Layer" class="s0" d="m371 169.1h-22.5v-113.9h22.5v10.5q1.3-2.7 3.3-4.9 5.5-5.6 13.1-5.6h4.1q7.6 0 13.1 5.7 5.4 5.6 5.4 13.8v15.4l-22.6 11.3v-24.6h-16.4z"/>
			</g>
		</g>
	</g>
	<g id="Layer" style="opacity: .3">
		<g id="Layer">
			<g id="Layer">
				<path id="Layer" class="s0" d="m460.2 55.2h22.6v123.1q0 8.2-5.4 13.8-5.5 5.7-13 5.7h-24.7q-7.6 0-13-5.8-5.4-5.7-5.4-13.7v-7.2l22.5-11.3v16.4h16.4v-37.9l-38.9 19.5v-102.6h22.5v68.7l16.4-8.2z"/>
			</g>
		</g>
	</g>
	<g id="Layer" style="opacity: .3">
		<g id="Layer">
			<g id="Layer">
				<path id="Layer" fill-rule="evenodd" class="s0" d="m521.8 65.7q1.2-2.7 3.3-4.9 5.5-5.6 13.1-5.6h4.1q7.6 0 13 5.8 5.4 5.7 5.4 13.7v74.9q0 8.2-5.4 13.8-5.4 5.7-13 5.7h-4.1q-7.6 0-13.1-5.8-2.1-2-3.3-4.7v39.2h-22.6v-142.6h22.6zm0 81.9h16.4v-70.8h-16.4z"/>
			</g>
		</g>
	</g>
	<g id="Layer" style="opacity: .3">
		<g id="Layer">
			<g id="Layer">
				<path id="Layer" class="s0" d="m607.9 147.5h21.5v21.6h-25.6q-7.6 0-13-5.8-5.5-5.7-5.5-13.7v-52.1l-13.3 6.9v-25.2l13.3-6.9v-25.3l22.6-11.3v25.7l18.5-9.2v25l-18.5 9.4z"/>
			</g>
		</g>
	</g>
	<g id="Layer" style="opacity: .3">
		<g id="Layer">
			<g id="Layer">
				<path id="Layer" fill-rule="evenodd" class="s0" d="m637.6 74.7q0-8.4 5.5-13.9 5.4-5.6 13-5.6h24.6q7.6 0 13 5.7 5.5 5.6 5.5 13.8v27.7l-39 19.5v25.6h16.4v-20.5l22.6-11.3v33.9q0 8-5.5 13.7-5.4 5.8-13 5.8h-24.6q-7.6 0-13-5.7-5.5-5.6-5.5-13.8zm39 18.4v-16.4h-16.4v24.6z"/>
			</g>
		</g>
	</g>
	<g id="Layer" style="opacity: .3">
		<g id="Layer">
			<g id="Layer">
				<path id="Layer" class="s0" d="m738.1 169.1h-22.5v-113.9h22.5v10.5q1.3-2.7 3.3-4.9 5.6-5.6 13.2-5.6h4.1q7.5 0 13 5.7 5.4 5.6 5.4 13.8v15.4l-22.5 11.3v-24.6h-16.5z"/>
			</g>
		</g>
	</g>
	<g id="Layer" style="opacity: .5">
		<g id="Layer">
			<g id="Layer">
				<path id="Layer" class="s0" d="m42.5 192.7l46.3-172.3h22.6l-46.4 172.3z"/>
			</g>
		</g>
	</g>
	<g id="Layer" style="opacity: .5">
		<g id="Layer">
			<g id="Layer">
				<path id="Layer" class="s0" d="m173.5 43h-31.8v38.3l31.8-16.4v25.2l-31.8 16.4v35.9h31.8v21.6h-54.3v-123.1q0-8.2 5.4-13.8 5.5-5.7 13-5.7h35.9z"/>
			</g>
		</g>
	</g>
	<g id="Layer" style="opacity: .5">
		<g id="Layer">
			<g id="Layer">
				<path id="Layer" class="s0" d="m210.4 164h-22.5v-113.9h22.5v10.5q1.3-2.7 3.3-4.9 5.6-5.6 13.2-5.6h4.1q7.5 0 13 5.7 5.4 5.6 5.4 13.8v94.4h-22.5v-92.3h-16.5z"/>
			</g>
		</g>
	</g>
	<g id="Layer" style="opacity: .5">
		<g id="Layer">
			<g id="Layer">
				<path id="Layer" class="s0" d="m304.8 126l22.6-11.3v29.8q0 8.2-5.5 13.8-5.4 5.7-13 5.7h-24.6q-7.6 0-13-5.8-5.5-5.7-5.5-13.7v-74.9q0-8.2 5.5-13.8 5.4-5.7 13-5.7h24.6q7.6 0 13 5.7 5.5 5.6 5.5 13.8v12.3l-22.6 11.3v-21.5h-16.4v70.7h16.4z"/>
			</g>
		</g>
	</g>
	<g id="Layer" style="opacity: .5">
		<g id="Layer">
			<g id="Layer">
				<path id="Layer" class="s0" d="m364.3 164h-22.6v-113.9h22.6v10.5q1.2-2.7 3.3-4.9 5.5-5.6 13.1-5.6h4.1q7.6 0 13 5.7 5.4 5.6 5.4 13.8v15.4l-22.5 11.3v-24.6h-16.4z"/>
			</g>
		</g>
	</g>
	<g id="Layer" style="opacity: .5">
		<g id="Layer">
			<g id="Layer">
				<path id="Layer" class="s0" d="m453.5 50.1h22.5v123.1q0 8.2-5.4 13.8-5.4 5.7-13 5.7h-24.6q-7.6 0-13-5.8-5.5-5.7-5.5-13.7v-7.2l22.6-11.3v16.4h16.4v-37.9l-39 19.5v-102.6h22.6v68.7l16.4-8.2z"/>
			</g>
		</g>
	</g>
	<g id="Layer" style="opacity: .5">
		<g id="Layer">
			<g id="Layer">
				<path id="Layer" fill-rule="evenodd" class="s0" d="m515 60.6q1.2-2.7 3.3-4.9 5.5-5.6 13.1-5.6h4.1q7.6 0 13 5.8 5.5 5.7 5.5 13.7v74.9q0 8.2-5.5 13.8-5.4 5.7-13 5.7h-4.1q-7.6 0-13.1-5.8-2.1-2-3.3-4.7v39.2h-22.5v-142.6h22.5zm0 81.9h16.4v-70.8h-16.4z"/>
			</g>
		</g>
	</g>
	<g id="Layer" style="opacity: .5">
		<g id="Layer">
			<g id="Layer">
				<path id="Layer" class="s0" d="m601.2 142.4h21.5v21.6h-25.7q-7.5 0-13-5.8-5.4-5.7-5.4-13.7v-52.1l-13.3 7v-25.3l13.3-6.9v-25.3l22.6-11.2v25.6l18.4-9.2v25l-18.4 9.4z"/>
			</g>
		</g>
	</g>
	<g id="Layer" style="opacity: .5">
		<g id="Layer">
			<g id="Layer">
				<path id="Layer" fill-rule="evenodd" class="s0" d="m630.9 69.6q0-8.4 5.4-13.9 5.5-5.6 13-5.6h24.7q7.5 0 13 5.7 5.4 5.6 5.4 13.8v27.7l-38.9 19.5v25.6h16.4v-20.5l22.5-11.3v33.9q0 8-5.4 13.7-5.5 5.8-13 5.8h-24.7q-7.5 0-13-5.7-5.4-5.6-5.4-13.8zm39 18.4v-16.4h-16.4v24.6z"/>
			</g>
		</g>
	</g>
	<g id="Layer" style="opacity: .5">
		<g id="Layer">
			<g id="Layer">
				<path id="Layer" class="s0" d="m731.4 164h-22.6v-113.9h22.6v10.5q1.2-2.7 3.3-4.9 5.5-5.6 13.1-5.6h4.1q7.6 0 13 5.7 5.5 5.6 5.5 13.8v15.4l-22.6 11.3v-24.6h-16.4z"/>
			</g>
		</g>
	</g>
	<g id="Layer">
		<g id="Layer">
			<g id="Layer">
				<path id="Layer" class="s1" d="m35.7 187.6l46.4-172.3h22.5l-46.3 172.3z"/>
			</g>
		</g>
	</g>
	<g id="Layer">
		<g id="Layer">
			<g id="Layer">
				<path id="Layer" class="s1" d="m166.8 37.9h-31.8v38.3l31.8-16.4v25.2l-31.8 16.5v35.8h31.8v21.6h-54.4v-123.1q0-8.2 5.5-13.8 5.4-5.7 13-5.7h35.9z"/>
			</g>
		</g>
	</g>
	<g id="Layer">
		<g id="Layer">
			<g id="Layer">
				<path id="Layer" class="s1" d="m203.7 158.9h-22.6v-113.9h22.6v10.5q1.2-2.7 3.3-4.9 5.5-5.6 13.1-5.6h4.1q7.6 0 13 5.7 5.5 5.6 5.5 13.8v94.4h-22.6v-92.3h-16.4z"/>
			</g>
		</g>
	</g>
	<g id="Layer">
		<g id="Layer">
			<g id="Layer">
				<path id="Layer" class="s1" d="m298 120.9l22.6-11.2v29.7q0 8.2-5.4 13.8-5.5 5.7-13.1 5.7h-24.6q-7.6 0-13-5.8-5.4-5.7-5.4-13.7v-74.9q0-8.2 5.4-13.8 5.4-5.7 13-5.7h24.6q7.6 0 13.1 5.7 5.4 5.6 5.4 13.8v12.3l-22.6 11.3v-21.5h-16.4v70.7h16.4z"/>
			</g>
		</g>
	</g>
	<g id="Layer">
		<g id="Layer">
			<g id="Layer">
				<path id="Layer" class="s1" d="m357.5 158.9h-22.5v-113.9h22.5v10.5q1.2-2.7 3.3-4.9 5.5-5.6 13.1-5.6h4.1q7.6 0 13 5.7 5.5 5.6 5.5 13.8v15.4l-22.6 11.3v-24.6h-16.4z"/>
			</g>
		</g>
	</g>
	<g id="Layer">
		<g id="Layer">
			<g id="Layer">
				<path id="Layer" class="s1" d="m446.7 45h22.6v123.1q0 8.2-5.4 13.9-5.5 5.6-13.1 5.6h-24.6q-7.6 0-13-5.8-5.4-5.7-5.4-13.7v-7.2l22.5-11.3v16.4h16.4v-37.9l-38.9 19.5v-102.6h22.5v68.7l16.4-8.2z"/>
			</g>
		</g>
	</g>
	<g id="Layer">
		<g id="Layer">
			<g id="Layer">
				<path id="Layer" fill-rule="evenodd" class="s1" d="m508.3 55.5q1.2-2.7 3.2-4.9 5.6-5.6 13.2-5.6h4.1q7.6 0 13 5.8 5.4 5.7 5.4 13.7v74.9q0 8.2-5.4 13.8-5.4 5.7-13 5.7h-4.1q-7.6 0-13.2-5.8-2-2-3.2-4.7v39.2h-22.6v-142.6h22.6zm0 81.9h16.4v-70.8h-16.4z"/>
			</g>
		</g>
	</g>
	<g id="Layer">
		<g id="Layer">
			<g id="Layer">
				<path id="Layer" class="s1" d="m594.4 137.3h21.5v21.6h-25.6q-7.6 0-13-5.8-5.5-5.7-5.5-13.7v-52.1l-13.3 7v-25.3l13.3-6.9v-25.3l22.6-11.2v25.6l18.4-9.2v25l-18.4 9.4z"/>
			</g>
		</g>
	</g>
	<g id="Layer">
		<g id="Layer">
			<g id="Layer">
				<path id="Layer" fill-rule="evenodd" class="s1" d="m624.1 64.5q0-8.4 5.5-13.9 5.4-5.6 13-5.6h24.6q7.6 0 13 5.7 5.5 5.6 5.5 13.8v27.7l-39 19.5v25.6h16.4v-20.5l22.6-11.3v33.9q0 8-5.5 13.7-5.4 5.8-13 5.8h-24.6q-7.6 0-13-5.7-5.5-5.6-5.5-13.8zm39 18.4v-16.4h-16.4v24.6z"/>
			</g>
		</g>
	</g>
	<g id="Layer">
		<g id="Layer">
			<g id="Layer">
				<path id="Layer" class="s1" d="m724.6 158.9h-22.5v-113.9h22.5v10.5q1.3-2.7 3.3-4.9 5.5-5.6 13.1-5.6h4.1q7.6 0 13.1 5.7 5.4 5.6 5.4 13.8v15.4l-22.6 11.3v-24.6h-16.4z"/>
			</g>
		</g>
	</g>
</svg>